{"title":"Super 8 2011 BRRip 720p x264 AAC - PRiSTiNE [P2PDL]","uid":8787994,"size":741216445,"categoryP":"video","categoryS":"hd___movies","magnet":"?xt=urn:btih:54e28de8edd402fd9bd6512ade85d392f44e9e96&amp;dn=Super+8+2011+BRRip+720p+x264+AAC+-+PRiSTiNE+%5BP2PDL%5D&amp;tr=udp%3A%2F%2Ftracker.openbittorrent.com%3A80&amp;tr=udp%3A%2F%2Fopen.demonii.com%3A1337&amp;tr=udp%3A%2F%2Ftracker.coppersurfer.tk%3A6969&amp;tr=udp%3A%2F%2Fexodus.desync.com%3A6969","seeders":18,"leechers":7,"uploader":"Vitamin_X","files":-1,"time":1375872281,"description":"_______ Visit us at our Semi Public Bittorrent Community ________\n  &lt;a href=&quot;\nhttp://p2pdl.com&quot; rel=&quot;nofollow&quot; target=&quot;_NEW&quot;&gt;\nhttp://p2pdl.com&lt;/a&gt;  _____________________________ &lt;a href=&quot; http://p2pdl.com&quot; rel=&quot;nofollow&quot; target=&quot;_NEW&quot;&gt; http://p2pdl.com&lt;/a&gt;\n\n\nSuper 8 2011 BRRip 720p x264 AAC - PRiSTiNE\n\n\nGenre: Mystery | Sci-Fi | Thriller\nPlot: During the summer of 1979, a group of friends \nwitness a train crash and investigate subsequent \nunexplained events in their small town.\nDirector: J.J. Abrams\nStars: Joel Courtney, Kyle Chandler, AJ Michalka\nRated: N/A\n\nInfo: &lt;a href=&quot;\nhttp://www.imdb.com/title/tt1650062/&quot; rel=&quot;nofollow&quot; target=&quot;_NEW&quot;&gt;\nhttp://www.imdb.com/title/tt1650062/&lt;/a&gt;\n\n\nGeneral\nFormat                         : MPEG-4\nFile size                      : 700 MiB\nDuration                       : 1h 51mn\nOverall bit rate mode          : Variable\nOverall bit rate               : 875 Kbps\n\nVideo\nFormat                         : AVC\nBit rate                       : 793 Kbps\nWidth                          : 1 280 pixels\nHeight                         : 528 pixels\nDisplay aspect ratio           : 2.40:1\nFrame rate mode                : Constant\nFrame rate                     : 23.976 fps\nBit depth                      : 10 bits\nStream size                    : 634 MiB (91%)\nWriting library                : x264 core 130 r2273 b3065e6\n\nAudio\nFormat                         : AAC\nBit rate                       : 79.9 Kbps\nChannel(s)                     : 2 channels\nChannel positions              : Front: L R\nSampling rate                  : 48.0 KHz / 24.0 KHz\nStream size                    : 63.9 MiB (9%)\n\n\n\nSubtitle                       : Yes (English)\nSource                         : 720p.BluRay.x264-[hdmkv]\n &lt;a href=&quot;\nhttp://someimage.com/UVuWQRO&quot; rel=&quot;nofollow&quot; target=&quot;_NEW&quot;&gt;\nhttp://someimage.com/UVuWQRO&lt;/a&gt; &lt;a href=&quot;\nhttp://someimage.com/hxclw1h&quot; rel=&quot;nofollow&quot; target=&quot;_NEW&quot;&gt;\nhttp://someimage.com/hxclw1h&lt;/a&gt; &lt;a href=&quot;\nhttp://someimage.com/IKHmQIn&quot; rel=&quot;nofollow&quot; target=&quot;_NEW&quot;&gt;\nhttp://someimage.com/IKHmQIn&lt;/a&gt; &lt;a href=&quot;\nhttp://someimage.com/XzaI0i2&quot; rel=&quot;nofollow&quot; target=&quot;_NEW&quot;&gt;\nhttp://someimage.com/XzaI0i2&lt;/a&gt; &lt;a href=&quot;\nhttp://someimage.com/XBaHnut&quot; rel=&quot;nofollow&quot; target=&quot;_NEW&quot;&gt;\nhttp://someimage.com/XBaHnut&lt;/a&gt; &lt;a href=&quot;\nhttp://someimage.com/3c8bAan&quot; rel=&quot;nofollow&quot; target=&quot;_NEW&quot;&gt;\nhttp://someimage.com/3c8bAan&lt;/a&gt; &lt;a href=&quot;\nhttp://someimage.com/X2uvC2I&quot; rel=&quot;nofollow&quot; target=&quot;_NEW&quot;&gt;\nhttp://someimage.com/X2uvC2I&lt;/a&gt; &lt;a href=&quot;\nhttp://someimage.com/iAV6ZWF&quot; rel=&quot;nofollow&quot; target=&quot;_NEW&quot;&gt;\nhttp://someimage.com/iAV6ZWF&lt;/a&gt; &lt;a href=&quot;\nhttp://someimage.com/Q4xDwxb&quot; rel=&quot;nofollow&quot; target=&quot;_NEW&quot;&gt;\nhttp://someimage.com/Q4xDwxb&lt;/a&gt; &lt;a href=&quot;\nhttp://someimage.com/JSvDVuF&quot; rel=&quot;nofollow&quot; target=&quot;_NEW&quot;&gt;\nhttp://someimage.com/JSvDVuF&lt;/a&gt; &lt;a href=&quot;\nhttp://someimage.com/lvS8ncu&quot; rel=&quot;nofollow&quot; target=&quot;_NEW&quot;&gt;\nhttp://someimage.com/lvS8ncu&lt;/a&gt;\n\n----------------------------------------------------------------------------------------------------\n\n\nEncoded using revolutionary 10bit encoding, which enables us to provide you more crispier \nand sharper images at small sizes, just make sure you follow our instructions without a fault.\nRecommend to you to use latest version of VLC player. Install K-Lite Codec Pack or shark007 codecs\nin case of any kind of problem in playback (For non-VLC Media Player users). Alternatively, install\nCore AVC codecs, the fastest decoder that there is coupled with Community Center Codec Pack and play\non Windows Media Player Classic. Check sample to be sure.\nEnjoy!\n\nEncoder Notes:Looking For Early Access To Anything You Can Provide DVDScr, R5, DVDR, BluRay, Direct\nAudio, Music Releases and Seedboxes. We require dedicated servers, so as to do more \nand fast releases of movies.\nIf You Got anything to offer please contact us at &quot;&lt;a class=&quot;__cf_email__&quot; href=&quot;/cdn-cgi/l/email-protection&quot; data-cfemail=&quot;4131332601293432296f222e2c&quot;&gt;[email&amp;#160;protected]&lt;/a&gt;&lt;script cf-hash='f9e31' type=&quot;text/javascript&quot;&gt;\n/* &lt;![CDATA[ */!function(){try{var t=&quot;currentScript&quot;in document?document.currentScript:function(){for(var t=document.getElementsByTagName(&quot;script&quot;),e=t.length;e--;)if(t[e].getAttribute(&quot;cf-hash&quot;))return t[e]}();if(t&amp;&amp;t.previousSibling){var e,r,n,i,c=t.previousSibling,a=c.getAttribute(&quot;data-cfemail&quot;);if(a){for(e=&quot;&quot;,r=parseInt(a.substr(0,2),16),n=2;a.length-n;n+=2)i=parseInt(a.substr(n,2),16)^r,e+=String.fromCharCode(i);e=document.createTextNode(e),c.parentNode.replaceChild(e,c)}}}catch(u){}}();/* ]]&gt; */&lt;/script&gt;&quot;.\n\nFace book Fan Page:  \nSearch P2PDL on FB.","torrent":{"xt":"urn:btih:54e28de8edd402fd9bd6512ade85d392f44e9e96","amp;dn":"Super+8+2011+BRRip+720p+x264+AAC+-+PRiSTiNE+%5BP2PDL%5D","amp;tr":["udp%3A%2F%2Ftracker.openbittorrent.com%3A80","udp%3A%2F%2Fopen.demonii.com%3A1337","udp%3A%2F%2Ftracker.coppersurfer.tk%3A6969","udp%3A%2F%2Fexodus.desync.com%3A6969"],"infoHash":"54e28de8edd402fd9bd6512ade85d392f44e9e96","infoHashBuffer":{"type":"Buffer","data":[84,226,141,232,237,212,2,253,155,214,81,42,222,133,211,146,244,78,158,150]},"announce":[],"urlList":[]}}